<svg xmlns="http://www.w3.org/2000/svg" viewBox="0 0 1476 329"><defs><linearGradient id="g" x2="1" y2="1"><stop stop-color="#fffdf2"/><stop offset=".55" stop-color="#f2efd9"/><stop offset="1" stop-color="#d8ecb8"/></linearGradient><linearGradient id="r" x2="0" y2="1"><stop stop-color="#6cae58"/><stop offset="1" stop-color="#dcecb4"/></linearGradient></defs><rect width="1476" height="329" rx="18" fill="url(#g)"/><path d="M0 250 Q180 170 370 250T760 235T1120 210T1476 185V329H0Z" fill="url(#r)" opacity=".8"/><circle cx="1120" cy="90" r="55" fill="#d8c28e" opacity=".25"/><path d="M900 205L1010 100l95 105z" fill="#8aa7a1" opacity=".45"/><path d="M1010 205l125-125 120 125z" fill="#668d83" opacity=".35"/><g font-family="Vazirmatn,Arial" direction="rtl" text-anchor="middle"><text x="390" y="105" fill="#123f2d" font-size="52" font-weight="900">مستقیم تا<tspan fill="#df2e2e">♥</tspan> خانه شما</text><text x="390" y="155" fill="#164d38" font-size="25" font-weight="800">محصولات تازه و باکیفیت</text><text x="390" y="190" fill="#31515e" font-size="18">انتخابی از دل طبیعت، با عشق به سفره شما</text><rect x="295" y="220" width="210" height="58" rx="18" fill="#08734f"/><text x="400" y="257" fill="#fff" font-size="20" font-weight="800">مشاهده محصولات</text></g><g transform="translate(1080 42)"><circle cx="92" cy="190" r="28" fill="#202b2b"/><circle cx="250" cy="190" r="28" fill="#202b2b"/><path d="M95 187l40-72h92l45 72h-45l-25-38h-58l-25 38z" fill="#07824f"/><rect x="130" y="45" width="105" height="100" rx="12" fill="#08734f"/><text x="182" y="105" fill="#fff" font-family="Vazirmatn,Arial" font-size="24" font-weight="900" text-anchor="middle">دستچین</text><circle cx="180" cy="26" r="28" fill="#0c8051"/></g><g transform="translate(670 170)"><ellipse cx="0" cy="0" rx="75" ry="18" fill="#cbbd9a" opacity=".35"/><rect x="-55" y="-20" width="110" height="40" rx="10" fill="#fff" stroke="#d1bf95" stroke-width="4"/><circle cx="-30" cy="0" r="14" fill="#e4d7af"/><circle cx="5" cy="0" r="14" fill="#e4d7af"/><circle cx="38" cy="0" r="14" fill="#e4d7af"/></g></svg>