<svg xmlns="http://www.w3.org/2000/svg" viewBox="0 0 1476 336"><defs><linearGradient id="bg" x2="1" y2="1"><stop stop-color="#fbf8e9"/><stop offset=".52" stop-color="#f3f0d9"/><stop offset="1" stop-color="#b9dc92"/></linearGradient><linearGradient id="hill" x2="1"><stop stop-color="#cce5a6"/><stop offset="1" stop-color="#75a95e"/></linearGradient></defs><rect width="1476" height="336" rx="22" fill="url(#bg)"/><path d="M0 260 Q250 160 520 250T950 220T1476 160V336H0Z" fill="url(#hill)" opacity=".72"/><path d="M730 145l120-90 80 90z" fill="#8fa9a0" opacity=".45"/><path d="M820 145l120-115 110 115z" fill="#6d9188" opacity=".32"/><g font-family="Vazirmatn,Arial" direction="rtl" text-anchor="middle"><text x="360" y="100" fill="#0c472f" font-size="58" font-weight="900">مستقیم تا<tspan fill="#d52e2e">♥</tspan> خانه شما</text><text x="360" y="155" fill="#124c36" font-size="26" font-weight="800">محصولات تازه و باکیفیت</text><text x="360" y="190" fill="#31534e" font-size="18">انتخابی از دل طبیعت، با عشق به سفره شما</text><rect x="270" y="222" width="215" height="58" rx="29" fill="#08764f"/><text x="377" y="259" fill="white" font-size="20" font-weight="800">مشاهده محصولات</text></g><g transform="translate(1100 28)"><path d="M0 220h250" stroke="#6d8f63" stroke-width="5"/><path d="M50 215l35-100h120l45 100" fill="#07814f"/><rect x="75" y="45" width="120" height="105" rx="12" fill="#08764f"/><text x="135" y="105" fill="white" font-family="Vazirmatn" font-size="25" font-weight="900" text-anchor="middle">دستچین</text><circle cx="70" cy="220" r="30" fill="#243332"/><circle cx="220" cy="220" r="30" fill="#243332"/><circle cx="135" cy="25" r="30" fill="#116f43"/></g><g transform="translate(690 190)"><rect x="-90" y="-25" width="180" height="55" rx="15" fill="#fff" stroke="#c9b987" stroke-width="5"/><circle cx="-45" cy="2" r="18" fill="#e0d2aa"/><circle cx="0" cy="2" r="18" fill="#e0d2aa"/><circle cx="45" cy="2" r="18" fill="#e0d2aa"/><path d="M-60-35h120" stroke="#8aa46c" stroke-width="8"/></g><g fill="#fff"><circle cx="735" cy="311" r="9"/><circle cx="766" cy="311" r="9"/><circle cx="797" cy="311" r="9"/></g></svg>