<svg xmlns="http://www.w3.org/2000/svg" viewBox="0 0 1476 329"><defs><linearGradient id="sky" y2="1"><stop stop-color="#42b7ed"/><stop offset="1" stop-color="#a9dc77"/></linearGradient></defs><rect width="1476" height="329" rx="18" fill="url(#sky)"/><path d="M0 215Q240 125 450 220T850 190T1200 205T1476 165V329H0Z" fill="#79ad5b"/><path d="M650 220L790 70l130 150zM780 220L945 45l160 175z" fill="#dceaf0" opacity=".9"/><g transform="translate(160 45)"><path d="M0 175L0 80Q0 25 70 5L145 0l75 20q45 12 45 60v95z" fill="#0b713f" stroke="#fff" stroke-width="10"/><path d="M30 155Q70 90 135 105T240 155" fill="#9ad26d"/><circle cx="95" cy="150" r="25" fill="#222"/><circle cx="210" cy="150" r="25" fill="#222"/><path d="M98 148l45-50h48l35 50h-35l-22-25h-35l-18 25z" fill="#08734f"/><rect x="105" y="62" width="75" height="65" rx="8" fill="#08734f"/><text x="142" y="104" font-family="Vazirmatn,Arial" font-size="18" fill="#fff" text-anchor="middle" font-weight="900">دستچین</text><circle cx="180" cy="26" r="28" fill="#0c8051"/></g><g font-family="Vazirmatn,Arial" text-anchor="middle"><text x="760" y="155" fill="#075a3e" font-size="74" font-weight="900">دستچین</text><text x="760" y="212" fill="#fff" font-size="26" font-weight="800">جفت شیش با تو ، دستچین با ما</text></g><g fill="#fff"><circle cx="710" cy="292" r="10"/><circle cx="738" cy="292" r="10"/><circle cx="766" cy="292" r="10"/></g><g fill="#fff" opacity=".85"><circle cx="1150" cy="255" r="20"/><circle cx="1200" cy="260" r="14"/><circle cx="1260" cy="250" r="22"/></g></svg>