<svg xmlns="http://www.w3.org/2000/svg" viewBox="0 0 1200 520"><defs><linearGradient id="b" x2="0" y2="1"><stop stop-color="#fffdf2"/><stop offset="1" stop-color="#eef5d4"/></linearGradient></defs><rect width="1200" height="520" fill="url(#b)"/><path d="M0 420Q260 320 510 410T1200 360V520H0Z" fill="#c8df7a"/><g fill="#78aa48"><path d="M80 90q25-45 50 0q-25-18-50 0z"/><path d="M1050 110q25-45 50 0q-25-18-50 0z"/><path d="M180 400q25-45 50 0q-25-18-50 0z"/></g><g font-family="Vazirmatn,Arial" text-anchor="middle" fill="#07583d"><text x="600" y="88" font-size="45" font-weight="900">از مزرعه تا سفره شما</text><text x="600" y="125" font-size="20">مسیر شفاف و مطمئن؛ از تولید تا مصرف</text></g><g stroke="#08734f" stroke-width="5" fill="#fff"><circle cx="150" cy="260" r="92"/><circle cx="380" cy="260" r="92"/><circle cx="610" cy="260" r="92"/><circle cx="840" cy="260" r="92"/><circle cx="1070" cy="260" r="92"/></g><g font-family="Vazirmatn,Arial" text-anchor="middle"><g fill="#77b94f"><rect x="95" y="235" width="110" height="55" rx="10"/><path d="M115 235q30-60 60 0" fill="none" stroke="#4f8d3d" stroke-width="12"/></g><g fill="#b9d875"><path d="M330 305h100l-12-65h-76z"/><path d="M355 240v-45h50v45" fill="#9bd060"/></g><g fill="#fff"><rect x="555" y="225" width="110" height="80" rx="18"/><rect x="570" y="190" width="38" height="75" rx="10"/><rect x="615" y="180" width="38" height="85" rx="10"/></g><g fill="#222"><ellipse cx="840" cy="255" rx="48" ry="38"/><circle cx="805" cy="235" r="18"/><circle cx="875" cy="235" r="18"/></g><g fill="#08734f"><path d="M1015 275h110v35h-110z"/><path d="M1030 275v-65h75v65"/><circle cx="1040" cy="315" r="16"/><circle cx="1100" cy="315" r="16"/></g></g><g fill="#07583d" font-family="Vazirmatn,Arial" text-anchor="middle" font-size="20" font-weight="800"><text x="150" y="385">پرورش در مزرعه</text><text x="380" y="385">تولید باکیفیت</text><text x="610" y="385">بسته‌بندی بهداشتی</text><text x="840" y="385">ارسال سریع</text><text x="1070" y="385">تحویل درب منزل</text></g><g fill="none" stroke="#16865d" stroke-width="6" stroke-dasharray="12 9"><path d="M245 260h40"/><path d="M475 260h40"/><path d="M705 260h40"/><path d="M935 260h40"/></g><g fill="#16865d"><path d="M280 250l15 10-15 10z"/><path d="M510 250l15 10-15 10z"/><path d="M740 250l15 10-15 10z"/><path d="M970 250l15 10-15 10z"/></g><g font-family="Vazirmatn,Arial" text-anchor="middle"><rect x="455" y="435" width="290" height="50" rx="18" fill="#08734f"/><text x="600" y="468" fill="#fff" font-size="20" font-weight="800">تازه و مستقیم، تا خانه شما</text></g></svg>